<?xml version="1.0" encoding="utf-8"?>
<!-- Generator: Adobe Illustrator 22.1.0, SVG Export Plug-In . SVG Version: 6.00 Build 0)  -->
<svg version="1.1" id="Слой_1" xmlns="http://www.w3.org/2000/svg" xmlns:xlink="http://www.w3.org/1999/xlink" x="0px" y="0px"
	 viewBox="0 0 74.5 65.1" style="enable-background:new 0 0 74.5 65.1;" xml:space="preserve">
<style type="text/css">
	.st0{fill:#FCFCFC;}
</style>
<g>
	<path class="st0" d="M40.9,47.7V49l-5.1,0.4c-2.4,0-4.3-0.7-5.5-2.2c-1.2-1.5-2.6-4.7-4.1-9.6c-1.5-5-3-8.2-4.4-9.6
		c-1.4-1.4-5.2-2.2-11.4-2.3v18c0,1.6,0.5,2.6,1.4,3.1c0.9,0.5,2.4,0.8,4.6,0.8v1.5H0v-1.5c2.1,0,3.6-0.3,4.4-0.8
		c0.8-0.5,1.2-1.6,1.2-3.1v-38c0-1.6-0.4-2.6-1.2-3.1C3.6,2,2.1,1.8,0,1.8V0.2C6.4,0.1,13,0,20,0c4.5,0.1,8.1,1,10.7,2.9
		c2.7,1.8,4.1,5.1,4.3,9.7c0,3.3-0.6,5.8-1.7,7.4s-2.5,2.8-4.1,3.4s-3.7,1.2-6.4,1.6c2.2,0.4,3.9,1.3,5.1,2.6
		c1.2,1.3,2.7,4.6,4.5,9.8c1.8,5.2,3.2,8.2,4.2,9S39.1,47.7,40.9,47.7z M29.4,12.6c0-3.1-0.8-5.5-2.4-7.3c-1.6-1.8-4.5-2.8-8.8-2.8
		c-1.9,0-4.5,0.1-7.9,0.4v20.1c2.7,0.2,5.3,0.2,7.6,0.2c4.3,0,7.3-0.9,9-2.8C28.6,18.6,29.4,16,29.4,12.6z"/>
</g>
<g>
	<path class="st0" d="M63.8,24.6c1.3,0.1,2.4,0.2,3.3,0.5c2.8,1.1,4.7,2.6,5.8,4.4c1.1,1.8,1.6,4.1,1.6,7c0,4.6-1.3,7.9-3.9,9.9
		c-2.6,1.9-6.8,2.9-12.8,2.9c-6.1,0-12.4,0-18.7-0.1v-1.5c2.1,0,3.6-0.3,4.4-0.8c0.8-0.5,1.2-1.6,1.2-3.1v-38c0-1.6-0.4-2.6-1.2-3.1
		c-0.8-0.5-2.3-0.8-4.4-0.8V0.2c9-0.1,15.1-0.1,18.4-0.1c5.3,0.1,9.3,1.1,12,3c2.7,1.9,4,4.9,4,9c0,3.2-0.6,5.8-1.7,7.6
		S69,23,66.6,24.2C65.9,24.3,65,24.5,63.8,24.6z M49.4,3v20.1c2.2,0.2,4.8,0.2,7.6,0.2c3.9,0,6.7-0.9,8.4-2.7
		c1.7-1.8,2.5-4.4,2.5-7.8c0-3.3-0.9-5.8-2.8-7.6s-5-2.8-9.3-2.8C54,2.6,51.8,2.7,49.4,3z M49.4,46.4c2.6,0.3,4.9,0.4,6.8,0.4
		c5,0,8.4-0.9,10.1-2.8c1.7-1.8,2.6-4.4,2.6-7.6c0-3.4-0.9-6-2.8-7.7S61.2,26,57.1,26c-2.9,0-5.5,0.2-7.7,0.4V46.4z"/>
</g>
<g>
	<path class="st0" d="M10.7,59.3c0,1.4,0,3.1,0,3.1H9.9c0,0,0-1.8,0-3.1c0-1.5-0.8-2.1-2-2.1c-1.2,0-2,0.6-2,2.1v3.1H5.1
		c0,0,0-1.8,0-3.1c0-1.5-0.8-2.1-2-2.1c-1.2,0-2,0.6-2,2.1v3.1H0.4v-5.8h0.8v0.8c0.5-0.6,1.1-0.9,2.1-0.9c1.3,0,2,0.5,2.4,1.2
		C6.1,57,6.9,56.6,8,56.6C10,56.6,10.7,57.7,10.7,59.3z"/>
	<path class="st0" d="M13.9,55.1c0,0.2-0.3,0.4-0.6,0.4c-0.3,0-0.6-0.2-0.6-0.4c0-0.3,0.2-0.4,0.6-0.4
		C13.6,54.7,13.9,54.9,13.9,55.1z M12.9,56.7h0.8v5.8h-0.8V56.7z"/>
	<path class="st0" d="M19.3,56.6l-0.1,0.6c-0.1,0-0.2,0-0.3,0c-1.2,0-2.2,0.6-2.2,2.1v3.1h-0.8v-5.8h0.8v0.8
		c0.5-0.6,1.3-0.9,2.2-0.9C19.1,56.6,19.2,56.6,19.3,56.6z"/>
	<path class="st0" d="M23.9,56.6l-0.1,0.6c-0.1,0-0.2,0-0.3,0c-1.2,0-2.2,0.6-2.2,2.1v3.1h-0.8v-5.8h0.8v0.8
		c0.5-0.6,1.3-0.9,2.2-0.9C23.6,56.6,23.7,56.6,23.9,56.6z"/>
	<path class="st0" d="M31.4,59.5c0,1.6-1.4,3-3.5,3c-2.1,0-3.5-1.3-3.5-3s1.4-3,3.5-3C30,56.6,31.4,57.9,31.4,59.5z M30.6,59.5
		c0-1.3-1-2.4-2.7-2.4c-1.6,0-2.7,1-2.7,2.4c0,1.3,1.1,2.4,2.7,2.4C29.6,61.9,30.6,60.8,30.6,59.5z"/>
	<path class="st0" d="M36.5,56.6l-0.1,0.6c-0.1,0-0.2,0-0.3,0c-1.2,0-2.2,0.6-2.2,2.1v3.1h-0.8v-5.8h0.8v0.8
		c0.5-0.6,1.3-0.9,2.2-0.9C36.3,56.6,36.4,56.6,36.5,56.6z"/>
	<path class="st0" d="M48.4,56.7v5.5c0,2-1.4,2.9-3.3,2.9c-1.3,0-2.4-0.5-3-1.2l0.6-0.3c0.6,0.6,1.3,1,2.3,1c1.6,0,2.6-0.8,2.6-2.3
		v-0.8c-0.5,0.7-1.4,1.1-2.6,1.1c-2.1,0-3.4-1.3-3.4-3c0-1.6,1.4-3,3.4-3c1.2,0,2.1,0.4,2.6,1.1v-1H48.4z M47.6,59.5
		c0-1.3-0.9-2.4-2.6-2.4c-1.6,0-2.6,1.1-2.6,2.4c0,1.3,1,2.4,2.6,2.4C46.6,61.9,47.6,60.8,47.6,59.5z"/>
	<path class="st0" d="M51.2,53.5v8.9h-0.8v-8.9H51.2z"/>
	<path class="st0" d="M58.6,58.6v3.9h-0.8v-0.9c-0.6,0.6-1.6,1-2.7,1c-1.5,0-2.4-0.6-2.4-1.6c0-1.1,1-1.5,2.8-1.7
		c2-0.2,2.4-0.3,2.4-0.8c0-0.7-0.7-1.2-2-1.2c-1.5,0-2,0.7-2.1,1.1L53,58.2c0.2-0.7,1-1.6,2.9-1.6C57.3,56.6,58.6,57.1,58.6,58.6z
		 M57.8,59.5c-0.4,0.1-1.5,0.2-2.4,0.3c-1.3,0.1-1.9,0.5-1.9,1.1c0,0.6,0.6,0.9,1.7,0.9c1.3,0,2.7-0.7,2.7-1.9V59.5z"/>
	<path class="st0" d="M65.3,57.8L64.6,58c-0.2-0.5-0.8-0.8-1.7-0.8c-1,0-1.6,0.4-1.6,1c0,0.5,0.7,0.7,1.8,0.9
		c1.2,0.2,2.5,0.5,2.5,1.7c0,1.1-1.2,1.6-2.6,1.6c-1.7,0-2.5-0.6-2.8-1.3l0.7-0.3c0.2,0.6,0.9,1,2,1c0.8,0,1.8-0.3,1.8-1
		c0-0.6-0.6-0.8-1.9-1.1c-1.5-0.3-2.4-0.7-2.4-1.5c-0.1-1,0.8-1.7,2.4-1.7C64.2,56.6,65,57.1,65.3,57.8z"/>
	<path class="st0" d="M71.8,57.8L71,58c-0.2-0.5-0.8-0.8-1.7-0.8c-1,0-1.6,0.4-1.6,1c0,0.5,0.7,0.7,1.8,0.9c1.2,0.2,2.5,0.5,2.5,1.7
		c0,1.1-1.2,1.6-2.6,1.6c-1.7,0-2.5-0.6-2.8-1.3l0.7-0.3c0.2,0.6,0.9,1,2,1c0.8,0,1.8-0.3,1.8-1c0-0.6-0.6-0.8-1.9-1.1
		c-1.5-0.3-2.4-0.7-2.4-1.5c-0.1-1,0.8-1.7,2.4-1.7C70.6,56.6,71.5,57.1,71.8,57.8z"/>
</g>
</svg>
