<?xml version="1.0" standalone="no"?>
<!DOCTYPE svg PUBLIC "-//W3C//DTD SVG 20010904//EN"
 "http://www.w3.org/TR/2001/REC-SVG-20010904/DTD/svg10.dtd">
<svg version="1.0" xmlns="http://www.w3.org/2000/svg"
 width="1200.000000pt" height="1200.000000pt" viewBox="0 0 1200.000000 1200.000000"
 preserveAspectRatio="xMidYMid meet">
<metadata>
Created by potrace 1.11, written by Peter Selinger 2001-2013
</metadata>
<g transform="translate(0.000000,1200.000000) scale(0.100000,-0.100000)"
fill="#000000" stroke="none">
<path d="M1827 9973 c-1 -1 -216 -4 -477 -7 -261 -3 -612 -8 -780 -10 -168 -3
-365 -5 -437 -5 l-133 -1 0 -130 c0 -117 2 -130 18 -131 233 -6 342 -13 392
-24 14 -3 41 -8 60 -11 41 -7 138 -37 172 -54 85 -44 188 -141 188 -178 0 -5
7 -15 15 -22 9 -7 13 -15 11 -17 -2 -3 2 -23 10 -46 16 -46 20 -65 29 -157 9
-85 9 -6288 0 -6360 -18 -151 -64 -267 -134 -337 -105 -105 -355 -166 -703
-172 l-58 -1 0 -120 0 -120 173 0 c1790 -5 2467 -4 2468 5 3 35 1 226 -2 229
-2 3 -62 7 -134 10 -175 9 -231 15 -360 40 -122 24 -264 88 -323 146 -40 39
-91 114 -96 142 -2 7 -8 25 -14 39 -11 26 -18 63 -28 134 -3 22 -7 711 -7
1532 l-2 1491 155 -4 c85 -2 189 -6 230 -9 41 -3 113 -8 160 -11 47 -3 101 -7
120 -9 93 -8 168 -16 200 -20 19 -3 55 -7 80 -10 89 -11 139 -20 335 -59 47
-9 242 -65 265 -76 135 -63 200 -96 200 -102 0 -5 6 -8 13 -8 31 0 231 -235
268 -315 5 -11 23 -42 39 -70 30 -50 91 -173 135 -269 46 -103 85 -195 85
-201 0 -4 6 -21 14 -38 35 -78 131 -348 184 -517 16 -52 49 -156 73 -230 24
-74 44 -137 45 -140 7 -35 17 -69 24 -85 5 -11 26 -69 45 -130 101 -305 252
-676 360 -880 50 -95 107 -189 117 -193 4 -2 8 -10 8 -18 0 -8 4 -14 9 -14 5
0 12 -8 15 -17 6 -19 111 -131 162 -173 119 -98 329 -180 529 -206 77 -10 297
-11 400 -1 127 12 246 20 305 21 183 1 1123 -13 1127 -17 2 -3 18 -1 35 4 17
4 35 6 40 3 9 -6 165 -8 193 -4 6 1 28 1 50 0 117 -7 1763 -5 1783 2 12 4 22
3 22 -2 0 -5 10 -7 23 -4 12 2 76 7 142 9 162 6 315 19 480 41 22 2 58 7 80 9
22 2 42 5 45 6 6 3 13 4 75 14 65 10 203 39 288 61 9 2 25 6 35 8 30 7 126 37
147 47 11 5 29 10 40 12 11 2 37 11 59 20 21 9 40 17 43 17 5 0 76 32 143 63
88 42 256 146 310 192 54 46 170 163 200 201 41 52 90 125 90 134 0 6 4 10 9
10 5 0 11 8 15 18 3 9 20 42 37 72 33 57 117 258 125 297 2 12 9 34 14 49 11
27 45 175 54 229 2 17 8 50 12 75 21 129 29 246 29 465 0 224 -8 360 -25 465
-6 36 -12 76 -14 90 -4 34 -45 200 -55 225 -5 11 -14 38 -21 60 -14 46 -91
228 -99 235 -3 3 -13 19 -21 35 -8 17 -18 35 -23 40 -4 6 -31 43 -59 83 -28
39 -55 72 -60 72 -4 0 -8 4 -8 9 0 13 -99 113 -175 177 -197 166 -505 330
-719 384 -48 12 -90 19 -93 16 -3 -3 -13 -2 -22 3 -9 5 -50 12 -91 16 -41 4
-86 9 -100 10 -14 2 -43 3 -64 4 -49 1 -40 14 12 16 45 3 93 10 242 36 91 16
133 29 202 64 313 158 553 362 713 606 30 46 58 89 62 94 33 45 106 217 142
335 49 160 49 163 55 200 3 19 8 46 11 60 12 60 15 77 20 118 7 52 12 92 22
197 9 104 9 469 -1 565 -32 310 -116 571 -254 785 -24 39 -48 72 -53 73 -5 2
-9 9 -9 15 0 19 -147 173 -225 237 -182 149 -434 279 -705 365 -96 30 -262 75
-300 81 -14 2 -36 6 -50 9 -14 3 -36 7 -50 10 -14 3 -34 7 -45 9 -11 2 -40 7
-65 11 -25 4 -52 9 -61 10 -52 10 -138 20 -259 29 -41 4 -95 9 -120 12 -95 12
-296 15 -908 17 -349 1 -636 -1 -639 -6 -2 -4 -9 -4 -15 -1 -13 9 -168 11
-168 3 0 -3 -20 -3 -45 1 -25 4 -47 5 -49 2 -4 -4 -239 -6 -1239 -12 -137 0
-254 -3 -260 -6 -11 -4 -13 -73 -8 -240 l1 -30 98 -3 c103 -2 121 -4 222 -16
36 -5 70 -9 75 -10 9 -1 92 -17 105 -20 165 -43 266 -107 323 -206 39 -67 68
-189 72 -307 3 -57 7 -107 10 -112 4 -6 2 -10 -4 -10 -6 0 -6 -11 -1 -30 5
-16 5 -32 2 -34 -4 -2 -6 -22 -4 -43 4 -47 2 -106 -3 -111 -2 -2 0 -15 5 -28
5 -13 6 -24 2 -24 -4 0 -7 -27 -7 -60 0 -33 3 -60 7 -60 4 0 3 -13 -2 -30 -5
-16 -5 -30 -1 -30 4 0 5 -22 1 -49 -3 -27 -3 -58 2 -70 4 -12 4 -21 0 -21 -4
0 -7 -27 -7 -60 0 -33 3 -60 7 -60 4 0 3 -13 -2 -30 -5 -16 -5 -30 -1 -30 4 0
4 -27 1 -60 -3 -33 -3 -60 1 -60 4 0 4 -13 -1 -30 -5 -16 -6 -30 -2 -30 6 0 7
-64 2 -80 -2 -4 -1 -46 1 -85 0 -5 0 -37 0 -70 -1 -33 -1 -67 -1 -75 0 -8 0
-36 -1 -62 -1 -27 0 -51 4 -54 3 -3 2 -17 -3 -30 -6 -14 -6 -26 0 -29 5 -3 7
-11 5 -18 -9 -23 -11 -117 -2 -117 4 0 6 -4 3 -9 -5 -7 -8 -96 -6 -161 1 -8
-1 -36 -2 -63 -2 -26 0 -47 4 -47 4 0 3 -13 -2 -30 -5 -16 -6 -30 -2 -30 6 0
7 -64 2 -80 -1 -3 -1 -21 -1 -40 2 -63 0 -124 -5 -132 -3 -4 -1 -8 5 -8 6 0 6
-11 1 -30 -5 -16 -6 -30 -2 -30 6 0 7 -64 2 -80 -2 -4 -1 -46 1 -85 0 -5 0
-37 0 -70 -1 -33 -1 -67 -1 -75 0 -8 0 -36 -1 -62 -1 -27 0 -51 4 -54 3 -3 2
-17 -3 -30 -6 -14 -6 -26 0 -29 5 -3 7 -11 5 -18 -9 -23 -11 -117 -2 -117 4 0
6 -4 3 -9 -5 -7 -8 -96 -6 -161 1 -8 -1 -36 -2 -63 -2 -26 0 -47 4 -47 4 0 3
-13 -2 -30 -5 -16 -6 -30 -2 -30 6 0 7 -64 2 -80 -1 -3 -1 -21 -1 -40 2 -55 0
-104 -4 -108 -2 -2 0 -15 5 -28 5 -13 6 -24 2 -24 -4 0 -7 -27 -7 -60 0 -33 3
-60 7 -60 4 0 3 -13 -2 -30 -5 -16 -5 -30 -1 -30 4 0 5 -22 1 -49 -3 -27 -3
-58 2 -70 4 -12 4 -21 0 -21 -4 0 -7 -27 -7 -60 0 -33 3 -60 7 -60 4 0 3 -13
-2 -30 -5 -16 -5 -30 -1 -30 4 0 4 -27 1 -60 -3 -33 -3 -60 1 -60 4 0 4 -13
-1 -30 -5 -16 -6 -30 -2 -30 6 0 7 -64 2 -80 -2 -4 -1 -46 1 -85 0 -5 0 -37 0
-70 -1 -33 -1 -67 -1 -75 0 -8 0 -36 -1 -62 -1 -27 0 -51 4 -54 3 -3 2 -17 -3
-30 -6 -14 -6 -26 0 -29 5 -3 7 -11 5 -18 -9 -23 -11 -117 -2 -117 4 0 6 -4 3
-9 -5 -7 -8 -96 -6 -161 1 -8 -1 -36 -2 -63 -2 -26 0 -47 4 -47 4 0 3 -13 -2
-30 -5 -16 -6 -30 -2 -30 6 0 7 -64 2 -80 -1 -3 -1 -21 -1 -40 2 -55 0 -104
-4 -108 -2 -2 0 -15 5 -28 5 -13 6 -24 2 -24 -4 0 -7 -27 -7 -60 0 -33 3 -60
7 -60 4 0 3 -13 -2 -30 -5 -16 -5 -30 -1 -30 4 0 5 -22 1 -49 -3 -27 -3 -58 2
-70 4 -12 4 -21 0 -21 -4 0 -7 -27 -7 -60 0 -33 3 -60 7 -60 4 0 3 -13 -2 -30
-5 -16 -5 -30 0 -30 4 0 5 -15 1 -33 -5 -18 -5 -41 -1 -52 4 -11 5 -24 2 -29
-9 -16 -7 -74 2 -69 5 4 6 1 2 -5 -4 -7 -9 -40 -11 -74 -7 -112 -23 -183 -63
-266 -67 -141 -197 -211 -482 -258 -62 -10 -249 -12 -290 -3 -25 5 -52 10 -60
11 -29 1 -145 31 -155 39 -5 5 -16 9 -25 9 -39 1 -270 137 -270 160 0 4 -8 15
-18 26 -56 60 -171 265 -255 454 -52 116 -71 163 -137 330 -39 102 -76 194
-80 205 -4 11 -13 36 -20 55 -7 19 -16 44 -20 55 -4 11 -21 58 -38 105 -17 47
-46 130 -66 184 -20 54 -36 104 -36 110 0 6 -7 24 -15 39 -8 15 -19 42 -24 60
-11 38 -67 193 -80 222 -14 32 -55 139 -57 150 -8 41 -247 584 -284 645 -5 8
-21 36 -34 62 -14 26 -43 74 -65 108 -23 34 -41 64 -41 67 0 2 -21 30 -47 61
-102 121 -204 207 -338 283 -58 34 -200 100 -220 103 -5 1 -15 5 -21 8 -6 4
-21 9 -35 12 -13 2 -42 11 -64 19 -22 8 -71 20 -108 27 -71 13 -79 21 -25 25
18 2 33 4 33 5 0 2 19 6 69 14 21 3 41 8 45 10 3 3 25 7 47 10 33 5 187 41
429 101 175 43 436 149 565 229 112 69 310 239 310 266 0 5 3 10 8 10 8 0 76
84 132 165 38 53 128 225 134 253 1 9 8 29 14 44 11 26 38 115 47 154 30 129
41 187 40 209 0 14 2 25 5 25 3 0 6 10 6 23 1 12 4 41 7 65 20 137 28 442 14
582 -13 130 -18 176 -23 200 -2 14 -7 43 -10 65 -3 22 -10 58 -16 80 -6 22
-12 49 -13 60 -12 71 -65 247 -99 330 -44 103 -61 142 -71 155 -5 8 -19 31
-29 50 -78 146 -213 304 -346 407 -85 66 -216 153 -230 153 -5 0 -10 3 -10 8
0 4 -19 16 -43 26 -23 11 -53 26 -67 35 -14 9 -27 16 -30 16 -3 0 -22 8 -42
18 -72 33 -103 45 -163 67 -114 40 -223 74 -280 85 -16 4 -41 10 -55 15 -14 4
-54 13 -90 19 -36 6 -78 13 -95 16 -16 3 -46 8 -65 10 -19 3 -45 8 -58 11 -13
2 -51 7 -85 10 -105 10 -132 12 -132 14 0 9 -212 12 -918 14 -456 1 -829 0
-830 -1z m7558 -398 c54 -5 65 -7 205 -31 19 -3 46 -8 60 -10 14 -2 36 -7 50
-11 14 -3 30 -7 35 -9 63 -15 102 -25 110 -28 6 -2 24 -6 40 -10 17 -4 39 -11
50 -16 11 -4 47 -18 80 -31 33 -12 92 -38 130 -58 39 -19 72 -35 75 -36 3 0
32 -18 65 -39 84 -54 186 -137 247 -202 29 -31 58 -62 65 -69 21 -22 126 -179
140 -210 7 -16 22 -45 33 -62 11 -18 17 -33 14 -33 -4 0 -2 -6 4 -13 11 -13
64 -159 78 -212 4 -16 8 -32 9 -35 18 -64 42 -211 52 -330 15 -173 4 -505 -22
-640 -3 -14 -7 -41 -10 -60 -26 -160 -97 -372 -169 -500 -10 -19 -28 -52 -39
-72 -12 -21 -24 -38 -29 -38 -4 0 -8 -5 -8 -11 0 -23 -145 -181 -237 -259 -23
-19 -98 -69 -143 -93 -19 -11 -54 -30 -78 -43 -23 -13 -44 -24 -47 -24 -3 0
-20 -6 -38 -14 -19 -7 -45 -17 -58 -20 -13 -4 -33 -11 -44 -16 -23 -10 -129
-40 -165 -47 -13 -2 -56 -11 -95 -19 -38 -8 -95 -17 -125 -20 -74 -8 -102 -11
-190 -19 -149 -15 -1009 -8 -1280 11 -52 3 -115 7 -140 8 -41 1 -45 4 -50 31
-6 35 -5 3203 1 3209 2 2 33 7 69 10 36 4 83 9 105 12 45 6 87 10 195 19 41 3
93 8 115 10 22 2 74 6 115 10 278 23 315 27 319 31 6 5 441 -4 506 -11z
m-6151 -9 c49 -4 97 -9 107 -11 10 -2 43 -6 74 -10 31 -3 80 -10 108 -16 29
-6 61 -12 72 -14 11 -2 31 -6 45 -10 14 -4 36 -9 50 -12 14 -2 32 -7 40 -9 8
-3 17 -5 20 -6 3 0 46 -15 95 -33 105 -38 257 -111 285 -137 10 -10 22 -18 25
-18 11 0 70 -45 123 -95 59 -55 151 -164 197 -235 84 -131 186 -380 209 -510
2 -14 7 -36 10 -50 10 -43 18 -103 20 -145 1 -22 4 -45 8 -50 12 -23 15 -379
3 -490 -3 -33 -8 -82 -11 -110 -2 -27 -6 -59 -8 -70 -2 -11 -7 -40 -11 -65
-11 -68 -17 -92 -49 -208 -20 -74 -18 -67 -36 -117 -6 -16 -11 -31 -11 -33 1
-1 -26 -54 -58 -118 -135 -261 -327 -450 -572 -563 -80 -37 -248 -95 -303
-105 -14 -2 -29 -7 -34 -9 -4 -3 -26 -8 -48 -11 -22 -4 -51 -9 -64 -11 -44 -9
-74 -14 -125 -21 -27 -3 -61 -8 -75 -10 -90 -12 -288 -18 -655 -18 -382 1
-560 4 -865 19 -142 6 -147 8 -144 44 1 16 5 34 8 40 4 5 2 12 -2 15 -10 6 -8
48 2 65 4 5 2 12 -3 16 -7 3 -7 15 -1 29 5 13 6 26 4 29 -5 5 -8 152 -4 172 1
6 2 15 1 20 -3 14 -3 209 -1 220 2 6 2 15 1 20 -3 14 -3 209 -1 220 2 6 2 12
1 15 -6 16 -5 123 2 127 4 2 4 9 1 15 -10 16 -11 51 -2 70 5 9 4 19 -2 23 -6
3 -6 15 0 29 5 13 7 26 4 29 -5 5 -8 231 -4 252 1 6 2 15 1 20 -2 14 -2 290 0
301 1 5 1 14 0 19 -3 14 -3 209 -1 220 2 6 2 15 1 20 -3 14 -3 209 -1 220 2 6
2 15 1 20 -3 14 -3 209 -1 220 2 6 2 15 1 20 -3 14 -3 128 -1 140 1 6 2 15 1
20 -3 14 -3 209 -1 220 2 6 2 15 1 20 -3 14 -3 209 -1 220 2 6 1 15 0 20 -4
20 -2 86 2 91 6 6 53 11 156 19 40 3 99 7 130 10 155 13 310 22 527 31 88 3
161 7 162 8 6 5 522 -2 597 -8z m6239 -3801 c34 -3 89 -7 122 -10 33 -2 80 -7
105 -10 42 -5 56 -8 135 -21 57 -10 202 -43 226 -53 13 -5 27 -9 31 -10 25 -5
162 -54 188 -68 14 -7 30 -13 36 -13 6 0 17 -7 24 -15 7 -8 16 -13 20 -10 4 3
13 -2 20 -10 7 -8 17 -15 22 -15 10 0 123 -72 167 -106 51 -40 208 -202 236
-244 16 -25 33 -47 36 -50 15 -13 84 -141 114 -215 10 -22 21 -49 26 -60 32
-75 81 -279 94 -390 20 -172 25 -432 12 -560 -5 -38 -9 -91 -11 -117 -2 -26
-9 -69 -15 -95 -6 -26 -13 -59 -16 -73 -2 -14 -9 -43 -15 -65 -6 -22 -12 -45
-13 -52 -2 -7 -6 -16 -10 -19 -4 -4 -7 -15 -7 -24 0 -23 -72 -197 -115 -276
-33 -62 -110 -182 -124 -194 -3 -3 -24 -27 -46 -55 -94 -118 -207 -204 -370
-281 -53 -25 -102 -47 -108 -48 -7 -1 -16 -4 -22 -7 -11 -7 -71 -27 -101 -34
-10 -3 -44 -12 -74 -20 -154 -43 -356 -74 -600 -93 -120 -9 -696 -9 -855 0
-193 11 -297 18 -340 22 -22 3 -71 8 -110 11 -38 4 -81 9 -95 10 -14 2 -34 4
-46 4 l-20 1 0 1599 c1 880 4 1602 7 1605 6 6 26 8 174 21 137 12 175 15 270
21 55 3 127 7 160 9 33 3 152 7 265 11 113 3 206 7 207 8 4 3 362 -4 416 -9z"/>
</g>
</svg>
